<?xml version="1.0" standalone="no"?>
<!DOCTYPE svg PUBLIC "-//W3C//DTD SVG 20010904//EN"
 "http://www.w3.org/TR/2001/REC-SVG-20010904/DTD/svg10.dtd">
<svg version="1.0" xmlns="http://www.w3.org/2000/svg"
 width="1500.000000pt" height="1500.000000pt" viewBox="0 0 1500.000000 1500.000000"
 preserveAspectRatio="xMidYMid meet">

<g transform="translate(0.000000,1500.000000) scale(0.100000,-0.100000)"
fill="#000000" stroke="none">
<path d="M0 7500 l0 -7500 7500 0 7500 0 0 7500 0 7500 -7500 0 -7500 0 0
-7500z m5690 6642 c42 -63 201 -222 281 -282 43 -32 146 -97 230 -145 310
-177 433 -282 517 -438 l20 -39 18 29 c37 58 104 141 188 233 146 159 196 249
238 427 22 92 23 93 53 93 30 0 30 -1 49 -82 23 -105 66 -215 111 -281 18 -29
79 -101 135 -162 56 -60 122 -140 147 -177 26 -38 49 -68 52 -68 3 0 19 23 35
52 42 75 164 198 264 266 48 32 151 96 229 141 246 142 385 255 506 413 42 55
56 67 72 62 27 -9 35 -23 35 -64 1 -44 33 -194 61 -280 29 -89 104 -241 189
-385 139 -235 195 -384 207 -547 3 -48 7 -88 8 -88 1 0 33 14 71 31 38 18 143
56 234 86 222 73 280 108 412 246 64 68 68 70 93 59 19 -9 26 -18 22 -30 -73
-250 -80 -326 -43 -502 42 -196 56 -281 56 -337 0 -29 2 -53 5 -53 2 0 33 16
67 35 149 81 229 95 623 105 380 10 416 17 677 116 44 17 49 17 64 2 15 -15
13 -23 -20 -110 -79 -208 -93 -301 -100 -668 -5 -285 -17 -378 -62 -499 -14
-36 -36 -83 -50 -104 -14 -22 -23 -41 -20 -44 3 -3 44 -9 91 -14 47 -5 129
-18 183 -30 272 -58 323 -59 493 -13 140 39 136 39 149 14 10 -19 2 -31 -87
-123 -120 -124 -152 -183 -226 -408 -30 -91 -69 -193 -86 -227 l-31 -62 65 0
c148 0 307 -53 515 -172 220 -126 263 -149 355 -188 102 -44 220 -76 344 -94
81 -11 86 -14 89 -37 3 -22 -11 -37 -87 -98 -153 -121 -235 -226 -397 -504
-161 -275 -266 -399 -399 -473 l-57 -32 54 -35 c55 -37 116 -88 265 -221 106
-95 201 -144 356 -183 l108 -28 -3 -29 c-3 -27 -8 -31 -63 -43 -84 -19 -181
-51 -240 -81 -61 -30 -97 -58 -245 -190 -63 -57 -141 -121 -173 -142 l-58 -38
56 -32 c130 -74 246 -211 385 -452 46 -79 108 -181 139 -228 63 -96 210 -253
300 -320 48 -36 60 -50 58 -69 -2 -28 -15 -33 -132 -51 -186 -28 -327 -86
-607 -247 -245 -141 -382 -192 -540 -198 -43 -2 -78 -5 -79 -6 0 -2 13 -34 30
-71 16 -37 55 -143 85 -235 70 -210 106 -272 225 -391 88 -88 93 -95 82 -119
-8 -17 -17 -24 -29 -20 -9 2 -57 17 -107 32 -138 41 -249 44 -405 10 -170 -36
-287 -55 -337 -55 -24 0 -43 -2 -43 -5 0 -2 15 -33 34 -67 78 -142 106 -321
106 -683 0 -129 5 -222 16 -286 14 -82 64 -248 105 -346 12 -29 11 -35 -3 -49
-15 -15 -24 -13 -119 24 -203 78 -369 101 -716 102 -100 0 -217 5 -260 11 -97
13 -213 51 -276 89 -27 17 -53 30 -58 30 -5 0 -9 -24 -10 -52 0 -60 -14 -144
-54 -333 -34 -161 -31 -249 15 -410 29 -103 30 -110 14 -122 -10 -7 -20 -13
-23 -13 -3 0 -51 44 -106 98 -123 119 -182 152 -407 226 -91 30 -192 68 -226
85 -34 17 -63 31 -64 31 -2 0 -3 -39 -4 -88 -2 -155 -54 -296 -206 -558 -42
-71 -92 -162 -112 -202 -65 -130 -136 -372 -136 -465 0 -36 -15 -57 -41 -57
-9 0 -41 30 -70 68 -122 157 -258 267 -519 417 -74 43 -169 101 -210 128 -99
66 -227 197 -265 269 -17 32 -32 58 -35 57 -3 0 -22 -26 -42 -57 -20 -31 -78
-104 -130 -161 -185 -206 -218 -261 -266 -446 -28 -107 -30 -110 -57 -110 -27
0 -29 3 -56 106 -30 118 -71 214 -116 274 -17 22 -75 90 -130 151 -55 61 -121
141 -148 178 l-48 68 -31 -59 c-18 -34 -65 -92 -116 -143 -88 -88 -163 -140
-430 -297 -218 -129 -315 -208 -431 -354 -54 -67 -77 -89 -95 -89 -26 0 -26
-1 -44 125 -27 182 -88 339 -224 574 -164 286 -212 410 -223 577 l-6 91 -71
-32 c-39 -18 -149 -59 -244 -90 -204 -68 -258 -100 -389 -227 -81 -80 -93 -89
-112 -79 -12 7 -21 14 -21 16 0 3 14 53 30 112 45 160 48 249 15 408 -46 216
-54 267 -54 332 l-1 62 -83 -44 c-139 -74 -204 -85 -562 -95 -388 -11 -486
-27 -688 -107 -80 -32 -90 -34 -104 -20 -14 14 -12 26 25 124 76 205 91 303
92 573 0 351 28 527 106 668 19 34 34 65 34 67 0 3 -19 5 -42 5 -51 0 -168 19
-338 55 -178 39 -294 30 -507 -39 -18 -6 -25 -2 -33 16 -10 21 -2 32 87 123
119 122 151 178 226 406 30 91 69 193 86 227 17 34 31 63 31 64 0 2 -38 4 -84
5 -160 3 -280 48 -570 213 -108 62 -235 128 -282 147 -95 38 -249 80 -333 90
-123 14 -131 38 -36 112 160 126 265 255 411 506 48 83 110 184 137 225 66 99
197 227 269 265 32 17 58 32 58 35 -1 3 -29 24 -63 47 -34 23 -114 88 -178
145 -63 57 -131 116 -150 130 -61 47 -160 90 -273 118 -108 27 -111 29 -111
56 0 28 3 29 105 55 184 47 243 81 405 229 55 50 137 119 183 152 l83 61 -58
35 c-145 87 -230 188 -392 465 -164 282 -253 393 -411 518 -59 46 -80 69 -80
86 0 25 -3 24 141 47 182 29 328 87 555 218 283 165 414 216 575 225 l96 6
-37 81 c-20 44 -61 154 -89 243 -62 192 -95 249 -223 380 -82 83 -89 93 -78
113 9 16 17 20 33 16 270 -77 309 -79 564 -27 110 23 223 41 250 41 72 0 80
10 49 56 -14 22 -36 69 -50 105 -46 123 -57 213 -66 549 -7 259 -12 330 -29
400 -20 85 -67 230 -92 283 -11 24 -10 30 4 44 15 15 22 14 99 -17 193 -76
342 -100 626 -100 332 0 462 -20 612 -93 47 -23 88 -43 91 -45 3 -1 9 37 12
85 3 48 20 151 38 228 26 113 33 161 33 250 0 107 -6 139 -61 327 -4 12 3 21
20 29 23 10 30 5 119 -83 51 -51 120 -109 152 -128 32 -19 140 -62 240 -95
100 -34 209 -75 244 -91 l62 -30 0 56 c0 170 49 302 231 621 136 237 192 383
219 564 17 118 18 123 38 127 26 6 35 1 62 -40z"/>
<path d="M5640 14093 c0 -57 -51 -249 -93 -353 -24 -59 -93 -195 -153 -301
-177 -314 -205 -390 -205 -564 0 -87 1 -90 28 -110 59 -41 149 -136 182 -189
55 -91 82 -180 90 -287 l6 -97 85 35 c47 19 89 39 94 43 4 5 -1 37 -13 72 -56
170 -65 411 -22 583 20 81 77 261 125 393 14 40 30 95 34 124 4 28 12 53 19
55 7 3 24 -14 39 -36 15 -23 77 -83 138 -134 329 -274 469 -473 532 -754 16
-74 17 -75 45 -69 16 3 58 8 94 12 36 4 68 10 70 14 2 4 -11 36 -30 71 -86
163 -94 337 -25 517 l28 73 -33 67 c-67 133 -187 239 -422 373 -274 155 -417
264 -537 407 -37 45 -70 82 -72 82 -2 0 -4 -12 -4 -27z"/>
<path d="M8750 14035 c-117 -139 -230 -227 -486 -376 -288 -167 -393 -257
-468 -399 l-38 -72 25 -56 c36 -82 50 -155 50 -252 0 -103 -22 -191 -68 -278
-19 -36 -32 -68 -30 -72 2 -4 34 -10 70 -14 36 -4 78 -9 93 -12 l28 -6 27 109
c34 136 113 299 200 408 63 79 216 226 354 339 39 32 86 79 103 103 18 24 37
42 43 40 7 -2 15 -27 19 -55 4 -29 20 -84 34 -124 122 -338 149 -454 149 -643
0 -153 -10 -219 -47 -333 -11 -36 -16 -67 -12 -72 5 -5 48 -24 97 -43 l87 -35
0 77 c0 156 55 286 170 401 41 42 87 86 103 98 26 21 27 26 27 110 0 161 -48
294 -205 562 -88 152 -153 285 -185 380 -26 78 -59 224 -60 263 0 15 -4 27 -9
27 -4 0 -36 -34 -71 -75z"/>
<path d="M7220 13890 c-47 -185 -82 -244 -247 -424 -113 -122 -169 -200 -222
-311 -58 -119 -71 -168 -71 -272 0 -94 20 -176 61 -252 49 -92 57 -98 112 -93
45 4 48 6 42 26 -4 11 -10 42 -12 67 -4 38 -1 51 19 74 20 23 35 29 81 33 31
2 55 8 52 12 -11 18 18 70 41 76 30 8 105 -19 129 -46 22 -24 38 -25 56 -3 18
21 87 52 116 53 30 0 53 -26 53 -59 0 -27 2 -29 57 -33 46 -4 61 -10 81 -33
20 -23 23 -36 19 -74 -2 -25 -8 -56 -12 -67 -6 -20 -3 -22 42 -26 55 -5 63 1
112 93 41 75 61 158 61 249 0 192 -90 365 -322 619 -119 130 -154 186 -199
325 l-37 111 -12 -45z m97 -445 c69 -20 133 -72 168 -136 27 -48 30 -63 30
-139 0 -98 -17 -140 -82 -202 -129 -124 -340 -102 -437 47 -36 55 -49 109 -43
182 9 114 81 207 189 244 65 22 109 24 175 4z"/>
<path d="M7132 13389 c-58 -29 -109 -92 -129 -158 -31 -107 21 -220 126 -273
120 -61 256 -16 317 104 82 162 -32 348 -213 348 -39 0 -72 -7 -101 -21z m190
-100 c112 -80 52 -261 -87 -261 -153 0 -201 200 -65 274 43 24 108 18 152 -13z"/>
<path d="M5835 13388 c-155 -416 -197 -613 -175 -815 9 -86 51 -267 65 -281 5
-5 137 38 148 47 4 4 -2 52 -14 107 -17 75 -22 136 -23 254 -1 145 1 164 32
287 19 73 39 136 44 139 13 8 175 -159 234 -242 55 -77 124 -222 160 -334 15
-47 28 -86 28 -87 1 -1 19 2 41 7 22 4 57 11 78 14 46 8 47 20 12 140 -46 158
-126 303 -232 418 -121 133 -390 366 -398 346z"/>
<path d="M8496 13287 c-309 -266 -419 -414 -491 -663 -37 -128 -36 -130 33
-144 31 -6 66 -13 77 -15 17 -4 24 8 49 86 33 106 100 246 156 329 60 89 232
264 242 246 4 -8 22 -72 40 -143 30 -117 33 -141 32 -278 -1 -114 -6 -175 -23
-254 -12 -57 -18 -107 -14 -111 10 -10 143 -53 147 -49 2 2 10 27 19 54 85
275 64 513 -77 895 -25 68 -46 129 -46 136 0 30 -22 16 -144 -89z"/>
<path d="M4372 13140 c4 -14 13 -56 22 -95 18 -79 21 -208 6 -281 -5 -27 -21
-103 -35 -169 -34 -160 -43 -342 -21 -445 34 -163 138 -307 274 -378 66 -36
80 -35 125 1 l29 23 -41 41 c-55 54 -57 99 -7 149 19 19 42 34 51 34 13 0 15
5 9 18 -4 9 -8 33 -8 52 -1 45 27 60 116 60 l66 0 12 34 c13 41 74 106 100
106 10 0 30 -14 44 -30 l25 -30 33 20 c36 22 88 26 119 10 25 -14 49 -62 49
-100 0 -35 8 -37 59 -10 42 21 51 40 51 110 0 110 -47 244 -116 334 -95 124
-244 211 -526 304 -201 67 -260 98 -366 197 -62 57 -74 65 -70 45z m471 -366
c62 -21 135 -87 163 -149 18 -37 24 -68 24 -120 0 -169 -136 -296 -304 -283
-227 19 -341 270 -206 456 68 95 206 136 323 96z"/>
<path d="M4695 12741 c-73 -19 -142 -77 -169 -143 -9 -21 -16 -62 -16 -93 0
-67 20 -118 63 -163 67 -70 151 -94 238 -68 257 75 223 438 -43 470 -24 2 -56
1 -73 -3z m113 -105 c15 -8 38 -26 52 -41 21 -23 25 -36 25 -91 0 -60 -2 -66
-37 -100 -31 -32 -45 -38 -90 -42 -44 -3 -59 0 -88 20 -95 64 -89 199 11 250
41 22 90 23 127 4z"/>
<path d="M10054 13119 c-54 -57 -139 -121 -199 -151 -27 -14 -104 -43 -170
-63 -255 -79 -392 -150 -500 -259 -78 -79 -125 -163 -150 -267 -15 -66 -20
-165 -9 -194 6 -15 73 -55 92 -55 5 0 12 21 15 47 9 86 88 120 167 72 25 -15
35 -18 38 -9 8 22 42 50 62 50 26 0 86 -64 100 -106 l12 -34 72 0 c90 0 120
-17 113 -64 -2 -17 -7 -39 -12 -48 -5 -13 -3 -18 10 -18 9 0 32 -15 51 -34 50
-50 48 -95 -7 -149 l-41 -41 29 -23 c44 -36 59 -36 123 -2 117 62 208 173 257
314 25 74 27 92 27 225 0 129 -5 165 -38 325 -45 211 -48 298 -17 429 12 49
20 90 18 92 -2 2 -21 -15 -43 -37z m-195 -365 c138 -74 187 -235 116 -379 -52
-106 -151 -162 -274 -153 -77 6 -131 30 -183 85 -148 153 -82 407 122 474 14
5 57 7 96 5 55 -2 82 -9 123 -32z"/>
<path d="M9675 12741 c-53 -14 -113 -50 -140 -85 -110 -144 -38 -347 138 -386
143 -32 287 85 287 235 0 121 -91 224 -210 238 -25 3 -58 2 -75 -2z m126 -114
c94 -63 88 -199 -12 -249 -67 -35 -151 -14 -189 47 -27 43 -27 117 0 160 40
65 137 85 201 42z"/>
<path d="M7350 12778 c-13 -5 -39 -20 -57 -34 -33 -25 -33 -26 -33 -110 0 -47
4 -84 10 -84 30 0 105 121 116 187 7 46 0 55 -36 41z"/>
<path d="M7080 12753 c0 -35 30 -101 71 -158 49 -68 59 -60 59 40 l0 85 -42
30 c-54 39 -88 40 -88 3z"/>
<path d="M2905 12513 c4 -10 22 -63 40 -118 55 -163 66 -246 75 -595 7 -271
11 -326 29 -394 25 -94 57 -165 100 -223 27 -37 36 -43 69 -43 57 0 149 -26
232 -67 88 -42 199 -147 246 -230 16 -29 31 -53 34 -53 4 1 83 100 114 144 6
8 -16 37 -71 92 -207 207 -291 402 -368 848 -9 50 -25 110 -35 134 -36 81 -34
82 85 43 33 -10 137 -33 230 -51 350 -65 545 -159 729 -349 61 -64 71 -70 86
-59 84 60 139 104 140 110 0 3 -24 19 -52 36 -157 89 -276 271 -295 452 -7 70
-25 91 -126 141 -121 61 -181 70 -522 79 -372 10 -503 28 -669 96 -71 29 -80
30 -71 7z"/>
<path d="M11445 12490 c-171 -59 -267 -71 -620 -80 -341 -8 -401 -18 -522 -79
-102 -51 -120 -71 -127 -144 -20 -181 -136 -360 -293 -449 -29 -17 -53 -33
-53 -37 0 -3 8 -11 19 -18 10 -6 44 -33 76 -58 l57 -46 91 88 c199 192 363
268 727 338 169 33 259 55 266 66 3 5 17 9 31 9 29 0 29 -3 -6 -105 -11 -33
-36 -141 -56 -241 -40 -206 -70 -306 -126 -418 -54 -108 -118 -196 -212 -290
-55 -55 -77 -84 -71 -92 32 -45 110 -143 114 -143 3 0 21 27 40 60 88 155 306
288 471 289 40 0 53 11 96 85 79 135 103 267 103 573 0 312 26 495 95 664 14
34 25 63 25 65 0 5 -10 2 -125 -37z"/>
<path d="M7070 12484 c-625 -34 -1172 -171 -1695 -423 -1138 -548 -1984 -1580
-2293 -2796 -97 -381 -133 -669 -132 -1069 0 -562 94 -1064 297 -1576 381
-965 1098 -1758 2018 -2231 225 -116 370 -178 600 -254 298 -100 534 -153 845
-192 182 -22 786 -26 975 -5 324 35 644 103 922 197 1475 497 2564 1758 2847
3295 52 283 61 399 61 775 -1 392 -13 519 -80 850 -361 1776 -1807 3135 -3605
3389 -214 30 -582 50 -760 40z m385 -214 c1028 -61 1958 -479 2676 -1201 637
-641 1029 -1450 1155 -2381 21 -155 30 -646 15 -819 -72 -830 -373 -1586 -887
-2229 -138 -173 -451 -486 -621 -622 -538 -427 -1156 -711 -1813 -832 -285
-52 -392 -61 -745 -61 -353 0 -460 9 -745 61 -443 82 -877 241 -1285 472 -139
79 -385 246 -525 358 -174 139 -487 451 -624 624 -625 783 -941 1751 -895
2741 42 899 371 1746 948 2436 816 979 2082 1528 3346 1453z"/>
<path d="M6975 12224 c-1037 -83 -1939 -501 -2638 -1223 -497 -515 -847 -1145
-1017 -1836 -85 -344 -114 -586 -114 -960 0 -296 8 -412 50 -665 190 -1159
882 -2183 1886 -2791 1003 -609 2227 -750 3338 -387 826 270 1536 790 2036
1491 790 1106 970 2544 478 3805 -62 158 -198 437 -285 586 -646 1093 -1743
1806 -3019 1961 -129 16 -598 28 -715 19z m-1895 -3249 l0 -85 -80 0 -80 0 0
-270 c0 -148 -2 -270 -5 -270 -3 0 -24 9 -45 20 -58 29 -250 77 -363 89 -208
23 -493 -39 -582 -127 -72 -71 -63 -166 18 -209 45 -23 107 -12 297 53 143 48
178 56 265 61 219 12 381 -58 452 -196 57 -109 40 -221 -49 -333 -69 -88 -253
-187 -377 -204 l-52 -7 27 -28 c45 -47 120 -79 183 -79 l56 0 62 -103 c34 -56
63 -109 65 -117 5 -23 -58 -39 -157 -39 -147 -1 -187 28 -306 221 -74 121 -91
135 -177 143 -149 14 -236 34 -309 70 -86 43 -123 85 -131 150 -10 96 37 139
150 138 56 -1 77 -6 125 -34 155 -86 191 -104 243 -116 73 -17 138 -16 246 2
167 29 324 95 361 152 24 36 23 96 -2 124 -62 69 -145 67 -448 -10 -130 -34
-252 -61 -271 -61 -54 0 -157 36 -222 78 -104 68 -171 159 -200 272 -32 126 1
232 96 307 161 126 432 168 711 110 69 -15 134 -29 143 -33 14 -5 16 7 16 120
l0 126 -570 0 -570 0 0 85 0 85 740 0 740 0 0 -85z m3377 -98 c60 -90 82 -156
95 -274 l12 -103 58 0 58 0 0 50 c0 56 -30 156 -63 210 -12 19 -41 56 -66 83
l-44 47 55 0 c51 0 58 -3 96 -41 66 -67 131 -226 132 -321 l0 -28 1070 0 1070
0 0 -30 0 -30 -190 0 -190 0 0 -51 c0 -49 1 -51 23 -45 12 4 63 10 112 12 106
6 146 -9 180 -66 18 -31 20 -56 23 -223 l4 -188 -44 22 c-23 12 -46 26 -49 32
-4 6 -23 2 -51 -12 -144 -69 -343 -6 -343 109 0 46 23 81 84 127 72 55 195 73
274 40 l37 -16 0 28 c0 17 -10 37 -26 52 -23 21 -34 24 -97 23 -49 -1 -95 -10
-144 -27 -69 -24 -73 -25 -73 -7 0 10 5 22 10 25 6 3 10 42 10 86 l0 79 -532
-2 -533 -3 0 -45 c0 -42 2 -45 25 -42 125 14 197 12 229 -5 71 -37 76 -52 79
-269 l4 -195 -34 17 c-18 9 -40 23 -49 30 -14 12 -23 11 -65 -8 -69 -32 -191
-32 -251 -1 -59 32 -83 67 -83 120 0 39 5 49 48 92 33 33 65 54 103 66 68 23
163 24 206 2 36 -19 48 -10 39 27 -19 76 -157 81 -328 11 -14 -5 -18 -2 -18
13 0 12 5 24 10 27 6 3 10 42 10 86 l0 79 -275 0 -275 0 0 -86 0 -86 41 36
c52 44 98 60 159 54 99 -10 175 -78 206 -186 14 -46 15 -65 5 -106 -13 -58
-69 -146 -105 -166 -21 -11 -29 -9 -66 13 l-41 24 50 57 c93 107 107 234 33
300 -56 50 -191 -5 -253 -102 -28 -45 -29 -50 -29 -175 0 -144 4 -139 -69 -92
l-41 25 0 245 0 245 -60 0 -60 0 0 -276 0 -275 -22 7 c-61 18 -78 34 -78 69 0
19 -2 35 -5 35 -2 0 -25 -20 -50 -45 -59 -56 -109 -73 -167 -56 -112 34 -218
155 -218 249 0 82 99 195 182 208 70 12 107 -3 178 -72 37 -35 70 -64 73 -64
4 0 7 50 7 110 l0 110 -297 -2 -298 -3 -3 -74 c-3 -67 -1 -76 21 -100 46 -49
59 -88 55 -162 -3 -56 -9 -76 -34 -111 -87 -125 -259 -126 -393 -3 -48 43 -91
123 -91 168 0 69 72 165 146 193 44 17 141 16 187 -1 15 -6 17 0 17 44 l0 51
-415 0 -415 0 0 -87 0 -87 33 32 c118 114 293 66 365 -101 7 -15 12 -55 12
-88 0 -70 -22 -120 -82 -185 l-40 -43 -41 26 c-23 14 -44 27 -46 29 -2 2 14
23 37 48 75 82 106 181 79 255 -37 102 -171 93 -268 -18 -50 -56 -59 -91 -59
-224 l0 -108 -50 27 -50 27 0 249 0 248 -55 0 -55 0 0 -106 c0 -97 -2 -106
-17 -99 -155 59 -382 32 -391 -48 -4 -34 13 -57 42 -57 13 0 56 11 96 25 87
30 159 32 216 6 53 -24 74 -55 74 -108 0 -67 -71 -135 -165 -157 l-30 -8 24
-19 c13 -10 35 -19 50 -19 20 0 32 -10 53 -43 15 -23 23 -46 19 -50 -5 -5 -30
-9 -56 -9 -54 0 -72 13 -120 88 -32 50 -34 51 -94 57 -69 8 -112 26 -135 59
-20 28 -20 43 0 62 24 24 69 19 130 -15 51 -29 60 -31 133 -27 57 3 89 11 122
29 49 27 64 64 33 86 -26 19 -66 16 -173 -12 -77 -20 -101 -23 -132 -15 -111
30 -176 174 -106 237 50 46 88 58 187 58 52 0 112 -4 133 -8 l37 -8 0 51 0 50
-705 0 -705 0 0 -51 c0 -49 1 -51 23 -44 12 4 63 9 112 12 75 4 96 1 125 -15
62 -33 73 -71 78 -280 l5 -183 -39 16 c-22 8 -44 23 -51 32 -11 14 -17 14 -65
-8 -77 -34 -185 -33 -253 1 -129 66 -102 197 53 268 67 30 166 34 225 9 l38
-16 -3 31 c-8 76 -132 96 -272 44 -38 -15 -72 -24 -75 -20 -3 3 2 19 12 35 12
21 17 52 17 100 l0 69 -60 0 -60 0 0 30 0 30 890 0 890 0 0 44 c0 94 -59 226
-138 309 l-36 37 52 0 c46 0 57 -4 92 -36 55 -50 108 -160 128 -267 l16 -87
759 0 760 0 -7 76 c-9 96 -39 179 -99 272 -26 40 -47 77 -47 82 0 6 24 10 53
10 l53 0 41 -63z m-2420 -538 c149 -72 174 -290 50 -443 l-23 -28 -52 32 -52
32 50 57 c58 67 80 122 80 202 0 50 -4 63 -27 89 -60 67 -149 58 -229 -24 -69
-71 -84 -118 -84 -263 0 -64 -4 -113 -9 -113 -6 0 -26 9 -45 21 l-36 21 0 209
0 209 44 0 c42 0 45 -2 48 -31 l3 -30 35 27 c19 14 49 32 65 40 46 20 132 17
182 -7z m4172 2 c44 -23 98 -81 117 -127 35 -84 6 -234 -59 -308 l-32 -37 -52
33 -52 32 54 58 c74 80 99 162 75 249 -33 119 -204 107 -285 -20 -38 -61 -55
-135 -55 -243 0 -54 -2 -98 -5 -98 -3 0 -24 9 -45 20 l-40 20 0 210 0 210 45
0 c43 0 45 -1 45 -30 0 -36 3 -37 44 -5 75 57 174 72 245 36z m-2763 -641 c43
-12 143 -52 222 -90 l142 -69 105 52 c57 29 105 55 105 58 0 3 -18 12 -40 19
-59 20 -41 24 28 6 53 -13 65 -13 116 0 70 18 99 13 33 -5 -26 -8 -47 -16 -46
-20 0 -3 47 -29 105 -58 l105 -52 110 55 c181 90 272 117 417 122 192 7 304
-33 352 -127 50 -99 10 -209 -94 -263 -175 -90 -466 -46 -714 109 l-73 45 -79
-36 c-44 -20 -85 -36 -92 -37 -22 -1 91 -39 182 -60 47 -12 146 -32 220 -45
l135 -24 -95 5 c-114 6 -311 38 -434 70 l-89 23 -111 -28 c-136 -34 -381 -70
-467 -69 -59 1 -54 3 61 19 134 20 302 58 388 87 l52 18 -89 38 -89 38 -58
-37 c-80 -51 -204 -107 -299 -135 -112 -32 -293 -33 -379 -1 -77 28 -124 65
-147 116 -54 118 12 235 156 279 77 24 262 22 361 -3z m-2189 -159 c15 -8 248
-11 817 -11 l796 0 0 -30 0 -30 -793 0 -793 0 -46 -29 -46 -29 -24 25 c-12 14
-38 33 -57 42 l-33 18 46 27 c25 14 51 36 57 47 11 21 11 21 32 1 12 -11 32
-25 44 -31z m5778 -31 l30 -12 -35 -14 c-19 -8 -49 -29 -66 -45 -20 -20 -34
-27 -39 -20 -3 6 -24 20 -45 31 -38 19 -61 20 -830 20 l-791 0 3 28 3 27 800
5 c825 5 822 5 855 45 12 14 17 12 49 -19 20 -19 50 -40 66 -46z m-3632 -237
c-7 -2 -21 -2 -30 0 -10 3 -4 5 12 5 17 0 24 -2 18 -5z m1370 0 c-13 -2 -35
-2 -50 0 -16 2 -5 4 22 4 28 0 40 -2 28 -4z"/>
<path d="M7652 8274 c-112 -56 -181 -186 -138 -262 18 -34 66 -62 106 -62 75
0 195 83 226 157 8 18 14 55 14 82 0 44 -4 52 -35 80 -46 40 -100 42 -173 5z"/>
<path d="M8218 8259 c-94 -49 -141 -135 -118 -212 14 -46 49 -83 88 -90 60
-12 162 59 213 147 39 68 37 90 -10 137 -35 35 -44 39 -87 39 -29 -1 -65 -9
-86 -21z"/>
<path d="M5245 8117 c-60 -29 -115 -83 -115 -113 0 -37 27 -49 105 -48 59 1
85 7 136 31 66 31 122 78 116 97 -6 21 -82 50 -137 53 -42 3 -66 -2 -105 -20z"/>
<path d="M9437 8126 c-45 -17 -102 -59 -123 -91 -50 -77 76 -107 221 -54 62
23 125 74 125 100 0 43 -149 73 -223 45z"/>
<path d="M10555 8117 c-60 -29 -117 -90 -113 -120 6 -46 113 -56 218 -21 59
19 140 79 140 103 0 26 -61 53 -134 58 -50 3 -70 0 -111 -20z"/>
<path d="M7140 7669 c-69 -14 -146 -56 -169 -93 -45 -72 -16 -158 66 -199 174
-88 436 -46 692 111 l34 20 -74 37 c-220 111 -403 153 -549 124z"/>
<path d="M8791 7669 c-89 -15 -179 -46 -301 -105 -135 -65 -137 -56 35 -139
146 -71 266 -100 383 -92 111 7 185 31 234 78 34 32 38 41 38 85 0 67 -26 106
-92 138 -89 43 -180 54 -297 35z"/>
<path d="M7961 7573 l-94 -56 44 -23 c24 -12 70 -32 101 -44 l56 -22 90 39
c50 21 91 43 92 48 3 10 -166 115 -185 115 -5 0 -52 -25 -104 -57z"/>
<path d="M5036 12210 c-43 -52 -43 -86 1 -162 51 -89 67 -81 71 35 4 83 -14
157 -37 157 -5 0 -21 -14 -35 -30z"/>
<path d="M9375 12206 c-8 -20 -15 -65 -15 -103 0 -133 20 -145 75 -47 40 72
40 88 3 144 -32 46 -46 48 -63 6z"/>
<path d="M4821 12101 c-28 -18 33 -84 115 -125 54 -27 94 -34 94 -16 0 25 -75
139 -94 144 -32 9 -99 7 -115 -3z"/>
<path d="M9530 12103 c-15 -4 -90 -123 -90 -142 0 -35 138 27 188 84 18 19 32
40 32 44 0 17 -87 27 -130 14z"/>
<path d="M3424 11994 c3 -11 21 -100 41 -199 19 -99 46 -220 61 -270 52 -179
141 -329 273 -459 90 -89 81 -89 152 -4 l41 49 -49 52 c-78 83 -170 213 -213
301 -40 83 -117 332 -106 343 3 4 59 -8 124 -26 198 -55 343 -135 506 -280
l69 -61 47 40 c77 64 76 64 41 109 -62 78 -206 188 -326 249 -88 44 -236 87
-440 127 -99 20 -191 39 -204 42 -19 5 -22 3 -17 -13z"/>
<path d="M11029 12006 c-2 -2 -69 -16 -149 -30 -283 -52 -434 -100 -570 -180
-85 -50 -214 -157 -256 -212 l-29 -37 60 -53 59 -53 48 42 c194 168 311 236
506 292 155 44 156 44 147 3 -20 -91 -81 -271 -113 -333 -43 -82 -135 -208
-205 -282 l-49 -52 41 -49 c70 -85 63 -85 147 -1 175 173 256 339 322 659 60
287 63 306 41 286z"/>
<path d="M2985 11094 c-16 -3 -109 -21 -205 -40 -154 -32 -187 -35 -275 -31
-55 3 -130 15 -167 26 -38 11 -68 17 -68 14 0 -3 33 -41 74 -85 91 -98 132
-173 187 -348 92 -295 192 -460 334 -554 101 -68 244 -105 349 -91 50 6 52 8
73 56 l22 49 -31 0 c-97 0 -147 87 -97 169 l20 33 -20 15 c-64 44 -39 105 62
152 l38 18 2 75 c1 46 7 81 16 91 15 19 76 23 86 7 11 -17 22 -11 35 20 35 85
143 93 195 14 l18 -27 28 34 c16 19 29 43 29 54 0 63 -144 231 -240 280 -112
57 -156 67 -300 70 -74 2 -148 1 -165 -1z m71 -157 c53 -27 101 -74 131 -130
13 -24 18 -55 18 -122 0 -80 -3 -95 -27 -137 -71 -119 -209 -175 -338 -137
-59 18 -130 78 -164 139 -27 48 -31 64 -31 130 0 91 23 146 84 207 86 85 218
105 327 50z"/>
<path d="M2812 10894 c-193 -96 -155 -388 57 -444 170 -45 334 117 292 288
-39 154 -205 228 -349 156z m178 -82 c55 -27 83 -77 78 -140 -12 -146 -199
-182 -270 -52 -65 119 69 254 192 192z"/>
<path d="M11162 11080 c-102 -27 -187 -74 -258 -145 -62 -61 -124 -155 -124
-188 0 -10 12 -34 26 -53 l27 -34 37 40 c31 34 43 40 77 40 47 0 84 -25 103
-70 13 -31 24 -37 35 -20 10 16 71 12 86 -7 9 -10 15 -45 16 -91 l2 -75 38
-18 c101 -47 126 -108 62 -152 l-20 -15 20 -33 c47 -76 7 -156 -81 -166 l-47
-5 24 -48 c19 -38 31 -49 56 -54 125 -25 324 43 432 148 109 105 185 246 262
489 65 206 103 273 221 391 25 25 41 46 35 46 -5 0 -47 -9 -93 -20 -108 -26
-226 -25 -348 1 -292 64 -453 74 -588 39z m504 -138 c62 -32 97 -65 129 -124
26 -46 30 -63 30 -133 0 -70 -4 -87 -30 -134 -59 -106 -153 -157 -274 -149
-108 8 -196 69 -240 168 -30 65 -28 169 3 235 27 60 100 127 159 149 58 22
169 16 223 -12z"/>
<path d="M11432 10894 c-157 -78 -174 -300 -31 -404 158 -114 380 0 379 196
-1 180 -184 290 -348 208z m189 -87 c39 -26 69 -79 69 -122 0 -78 -69 -145
-149 -145 -85 0 -141 59 -141 147 0 45 5 58 32 89 18 20 41 40 52 44 41 17
102 11 137 -13z"/>
<path d="M3324 10583 c-13 -68 4 -102 71 -144 66 -41 80 -46 88 -26 14 37 -99
207 -139 207 -7 0 -16 -16 -20 -37z"/>
<path d="M11075 10583 c-56 -54 -110 -184 -76 -183 3 0 35 17 70 38 45 26 67
46 74 65 12 36 0 117 -17 117 -7 0 -30 -17 -51 -37z"/>
<path d="M3255 10418 c-28 -15 -65 -50 -65 -60 0 -40 238 -53 253 -13 6 15
-114 85 -145 85 -13 0 -32 -6 -43 -12z"/>
<path d="M11083 10393 c-35 -21 -59 -41 -56 -48 10 -28 150 -34 213 -9 22 9
40 19 40 23 0 13 -44 49 -73 60 -42 16 -56 13 -124 -26z"/>
<path d="M2459 10239 c-120 -16 -244 -68 -459 -194 -250 -146 -406 -210 -594
-243 l-99 -18 83 -69 c144 -120 242 -247 395 -515 148 -259 253 -378 390 -446
l71 -35 56 26 c166 76 358 68 531 -22 37 -20 69 -34 71 -32 5 7 27 192 23 196
-3 2 -40 13 -83 23 -147 36 -290 103 -407 191 -67 50 -256 244 -359 369 -30
36 -75 80 -100 99 -25 19 -44 40 -42 46 3 6 39 18 82 27 42 9 156 43 253 76
251 87 349 105 524 99 132 -5 189 -15 350 -62 17 -5 24 5 53 77 18 46 35 88
38 94 3 8 -25 13 -88 16 -117 7 -208 37 -304 99 -61 40 -150 130 -181 182 -11
19 -120 27 -204 16z"/>
<path d="M11859 10243 c-31 -3 -44 -13 -82 -63 -81 -104 -203 -186 -327 -220
-25 -7 -84 -16 -131 -19 l-87 -6 36 -90 c20 -49 37 -91 38 -93 1 -2 38 8 81
21 119 38 227 51 377 44 152 -7 237 -26 486 -113 91 -32 192 -62 224 -68 33
-6 61 -16 63 -23 3 -7 -14 -23 -35 -37 -22 -14 -62 -51 -88 -82 -117 -137
-141 -164 -228 -253 -50 -52 -120 -116 -156 -143 -94 -72 -266 -154 -384 -183
-55 -14 -101 -27 -103 -29 -4 -3 18 -188 23 -194 1 -2 26 10 55 27 165 91 352
103 534 32 l72 -28 49 22 c140 63 246 182 407 458 59 101 130 217 158 257 60
85 175 208 254 271 30 24 55 46 55 50 0 3 -42 13 -94 22 -186 33 -329 90 -552
219 -166 97 -293 160 -374 186 -62 21 -188 43 -220 40 -8 -1 -31 -3 -51 -5z"/>
<path d="M2623 9770 c-94 -13 -282 -66 -433 -121 -74 -27 -141 -49 -147 -49
-7 0 -13 -2 -13 -5 0 -8 144 -177 222 -261 196 -212 339 -307 557 -370 99 -29
128 -30 135 -6 8 26 26 135 23 138 -1 1 -43 16 -94 33 -130 43 -278 120 -364
189 -94 76 -214 198 -202 205 5 4 66 21 134 39 116 31 134 33 284 32 124 0
183 -5 260 -22 55 -12 102 -18 106 -14 9 11 49 122 49 137 0 46 -356 98 -517
75z"/>
<path d="M11625 9774 c-167 -22 -295 -56 -295 -79 0 -15 40 -126 49 -137 3 -3
47 3 96 14 69 16 129 21 260 22 154 1 180 -2 275 -26 58 -14 118 -32 134 -38
l30 -11 -75 -76 c-159 -162 -290 -244 -499 -314 -52 -17 -96 -32 -98 -34 -2
-2 7 -54 24 -132 6 -29 21 -29 130 3 241 69 404 184 622 438 47 56 104 120
126 143 22 24 38 44 35 46 -17 12 -450 149 -514 162 -80 16 -244 27 -300 19z"/>
<path d="M2485 8749 c-158 -16 -316 -102 -510 -279 -178 -162 -232 -196 -389
-245 l-88 -28 109 -36 c138 -45 195 -80 324 -199 254 -232 427 -322 619 -322
89 0 168 19 248 59 95 48 103 58 96 117 l-7 52 -33 -14 c-44 -18 -89 -18 -119
2 -29 19 -49 75 -41 115 5 27 3 29 -24 29 -31 0 -70 30 -70 53 0 20 46 111 62
125 14 11 12 18 -17 62 -45 67 -53 106 -27 133 11 11 34 20 51 21 29 1 31 3
25 32 -9 48 19 102 60 119 31 13 41 13 82 -1 25 -8 47 -14 49 -12 1 2 6 24 9
50 l7 48 -60 38 c-102 67 -225 95 -356 81z m-110 -293 c146 -68 210 -240 141
-379 -110 -225 -417 -217 -519 12 -65 146 25 334 183 382 54 16 143 10 195
-15z"/>
<path d="M2200 8431 c-78 -25 -148 -90 -170 -156 -8 -23 -10 -64 -7 -103 6
-76 37 -129 106 -177 40 -28 49 -30 131 -30 82 0 91 2 131 30 69 49 100 101
106 179 9 108 -35 189 -130 238 -44 22 -129 32 -167 19z m137 -112 c121 -75
67 -264 -77 -264 -112 0 -180 119 -124 215 39 66 135 90 201 49z"/>
<path d="M11847 8748 c-78 -9 -166 -42 -232 -88 l-46 -32 7 -46 c4 -26 7 -48
8 -49 1 -1 22 5 47 13 41 14 50 14 82 1 44 -19 71 -67 64 -114 -5 -28 -3 -33
13 -33 33 0 70 -23 76 -46 6 -22 -27 -104 -58 -146 -10 -14 -9 -21 10 -41 12
-13 29 -44 38 -70 15 -44 15 -49 0 -72 -12 -19 -25 -25 -51 -25 -33 0 -34 -1
-29 -29 8 -40 -12 -96 -41 -115 -30 -20 -87 -21 -124 -1 l-29 14 -6 -51 c-8
-61 -2 -69 109 -122 250 -121 495 -52 804 226 194 175 266 218 428 259 29 7
51 14 50 16 -2 1 -43 14 -91 28 -143 42 -208 82 -365 227 -114 107 -200 170
-301 222 -129 67 -236 89 -363 74z m488 -293 c96 -47 158 -146 158 -254 0
-262 -311 -390 -488 -200 -25 27 -52 64 -60 83 -62 149 14 327 164 383 51 19
176 12 226 -12z"/>
<path d="M12150 8431 c-72 -22 -139 -81 -166 -147 -31 -73 -7 -192 49 -252 12
-13 44 -35 71 -49 70 -35 163 -30 232 13 101 62 140 185 94 293 -47 108 -176
173 -280 142z m137 -111 c41 -25 66 -74 65 -127 0 -54 -26 -96 -75 -123 -75
-43 -169 -9 -202 72 -39 100 27 198 135 198 27 0 58 -8 77 -20z"/>
<path d="M2650 8327 c0 -13 14 -43 30 -65 l30 -42 85 0 c101 0 109 12 43 61
-58 43 -117 69 -155 69 -28 0 -33 -4 -33 -23z"/>
<path d="M11715 8331 c-57 -27 -125 -79 -125 -96 0 -12 16 -15 85 -15 l85 0
30 47 c40 63 39 83 -2 83 -18 0 -51 -9 -73 -19z"/>
<path d="M2693 8148 c-28 -31 -43 -62 -43 -89 0 -20 3 -21 43 -15 47 8 103 34
153 73 56 42 46 53 -49 53 -74 0 -86 -3 -104 -22z"/>
<path d="M11590 8156 c0 -19 111 -93 158 -106 75 -20 87 -9 56 53 -32 63 -40
67 -131 67 -65 0 -83 -3 -83 -14z"/>
<path d="M2851 7680 c-73 -49 -155 -72 -273 -77 -117 -6 -163 2 -270 44 l-68
26 -66 -33 c-133 -65 -245 -197 -409 -480 -43 -74 -101 -169 -128 -210 -49
-73 -242 -276 -302 -318 -35 -24 -37 -23 92 -46 178 -32 325 -92 563 -231 269
-157 401 -205 563 -205 88 0 89 0 115 32 162 194 300 268 499 269 41 0 73 4
71 8 -2 4 -18 45 -37 92 -19 46 -36 86 -37 88 -2 2 -45 -8 -96 -22 -182 -51
-355 -58 -528 -22 -90 19 -306 86 -408 126 -41 16 -100 32 -132 36 -76 7 -82
24 -25 63 24 17 65 56 91 88 96 119 256 290 319 342 137 114 302 197 468 236
l79 18 -6 36 c-3 19 -9 65 -12 103 -4 37 -10 67 -13 66 -3 0 -26 -13 -50 -29z"/>
<path d="M11557 7641 c-4 -33 -9 -77 -13 -98 l-6 -39 79 -17 c150 -33 317
-114 445 -216 74 -58 213 -204 326 -342 34 -42 82 -90 107 -108 53 -38 51 -61
-4 -61 -20 0 -115 -27 -211 -61 -413 -143 -600 -160 -878 -82 -51 14 -94 24
-96 22 -1 -2 -18 -42 -37 -88 -19 -47 -35 -88 -37 -92 -1 -3 32 -7 75 -8 159
-2 287 -56 404 -171 42 -41 84 -86 93 -100 15 -22 24 -25 96 -28 157 -8 286
38 572 201 267 153 407 210 583 238 44 7 83 15 88 19 4 4 -29 37 -74 75 -136
115 -231 238 -374 485 -161 279 -257 392 -393 463 l-73 39 -49 -21 c-83 -36
-161 -51 -260 -51 -111 0 -177 16 -276 65 -40 19 -74 35 -76 35 -3 0 -8 -27
-11 -59z"/>
<path d="M2830 7435 c-124 -32 -293 -116 -396 -198 -119 -95 -420 -433 -392
-441 7 -2 64 -22 125 -45 151 -55 340 -109 427 -122 115 -18 332 -6 446 26 51
14 96 28 99 30 8 9 -42 155 -53 155 -6 0 -58 -10 -116 -21 -77 -16 -143 -22
-245 -22 -142 -1 -165 3 -358 54 l-77 21 92 91 c51 49 120 110 153 135 75 56
233 133 348 169 l88 28 -6 35 c-16 85 -27 130 -33 130 -4 -1 -50 -12 -102 -25z"/>
<path d="M11522 7412 c-6 -26 -13 -63 -17 -82 l-6 -35 63 -18 c103 -30 248
-96 333 -151 44 -29 127 -98 184 -153 l104 -100 -94 -26 c-216 -61 -370 -69
-574 -31 -44 8 -94 17 -110 20 -31 6 -31 5 -55 -70 -13 -42 -22 -77 -19 -79 2
-2 47 -16 99 -31 77 -23 122 -29 241 -33 196 -7 295 13 621 127 l147 52 -108
126 c-261 306 -411 419 -656 495 -44 13 -94 27 -112 30 -31 6 -32 5 -41 -41z"/>
<path d="M3043 6396 c-80 -20 -176 -71 -238 -128 -118 -108 -189 -239 -275
-506 -59 -184 -94 -247 -193 -357 -38 -41 -66 -75 -63 -75 2 0 44 10 93 21
113 28 228 27 358 -1 55 -11 134 -28 175 -37 45 -9 131 -16 215 -17 121 -1
150 2 215 22 101 32 172 74 240 143 51 51 120 160 120 188 0 6 -12 29 -26 51
l-27 40 -34 -39 c-58 -68 -141 -63 -179 12 -9 17 -18 33 -19 35 -1 1 -14 -2
-28 -9 -64 -29 -101 18 -95 120 l3 61 -33 11 c-36 12 -87 52 -102 80 -13 23 6
66 32 74 23 8 23 13 -2 50 -28 42 -26 100 4 130 21 21 81 45 114 45 14 0 -22
79 -42 92 -17 12 -156 8 -213 -6z m-9 -421 c108 -46 176 -148 176 -264 0 -165
-120 -285 -285 -285 -87 0 -153 31 -214 100 -67 77 -87 173 -54 273 49 153
231 237 377 176z"/>
<path d="M2847 5936 c-167 -60 -214 -281 -86 -403 86 -81 227 -84 317 -7 62
53 86 105 86 184 0 167 -161 281 -317 226z m156 -103 c64 -32 88 -134 47 -201
-21 -34 -87 -72 -125 -72 -11 0 -39 9 -62 19 -69 32 -103 124 -69 189 43 83
125 108 209 65z"/>
<path d="M11213 6402 c-10 -6 -43 -72 -43 -86 0 -2 23 -9 50 -16 32 -8 57 -21
70 -37 27 -35 26 -93 -2 -128 l-22 -28 21 -16 c32 -26 45 -58 34 -80 -14 -26
-62 -65 -100 -80 -30 -13 -31 -15 -31 -78 0 -39 -6 -76 -16 -95 -13 -26 -20
-29 -47 -26 -18 3 -39 8 -48 12 -12 5 -20 -1 -29 -25 -16 -37 -63 -69 -104
-69 -21 0 -41 12 -72 43 l-43 44 -26 -38 c-31 -47 -31 -48 -1 -107 103 -204
328 -316 596 -298 52 3 172 22 265 42 207 44 326 48 449 15 44 -12 81 -21 84
-21 2 0 -29 35 -70 78 -93 100 -125 159 -198 376 -65 192 -110 289 -176 383
-81 114 -197 194 -329 228 -62 16 -191 20 -212 7z m453 -433 c24 -12 64 -44
89 -71 99 -111 99 -266 0 -376 -62 -69 -121 -96 -210 -96 -115 -1 -209 56
-259 156 -30 61 -35 159 -11 227 54 155 239 231 391 160z"/>
<path d="M11450 5930 c-96 -45 -144 -118 -144 -220 0 -78 24 -131 84 -182 123
-106 312 -60 376 91 25 59 15 157 -22 217 -61 99 -193 141 -294 94z m173 -98
c39 -23 71 -93 64 -142 -7 -51 -33 -85 -84 -111 -99 -48 -203 20 -203 133 0
114 122 179 223 120z"/>
<path d="M3253 6068 c-81 -17 -77 -55 9 -94 l40 -18 74 39 c41 22 74 43 74 46
0 26 -123 43 -197 27z"/>
<path d="M11095 6073 c-50 -4 -79 -18 -70 -33 3 -5 35 -25 71 -45 57 -32 69
-35 95 -26 37 13 89 49 89 62 0 26 -101 49 -185 42z"/>
<path d="M3393 5953 c-34 -20 -64 -46 -67 -57 -10 -37 -6 -92 7 -111 13 -17
16 -16 55 19 23 21 52 61 66 89 48 104 35 117 -61 60z"/>
<path d="M10986 5982 c-3 -5 10 -40 28 -78 32 -67 98 -140 116 -129 14 9 22
63 15 103 -5 33 -14 41 -70 75 -66 38 -80 43 -89 29z"/>
<path d="M3695 5552 c-46 -88 -145 -181 -246 -231 -76 -38 -190 -70 -246 -71
-46 0 -120 -127 -154 -263 -18 -69 -22 -131 -29 -397 -9 -351 -21 -439 -84
-622 -19 -57 -33 -104 -32 -105 2 -2 24 5 49 16 60 26 171 59 260 77 48 10
182 18 397 24 215 6 346 14 387 23 92 21 171 53 233 95 54 36 55 38 62 97 24
193 135 368 289 457 32 18 57 36 56 40 -2 7 -143 118 -150 118 -3 0 -43 -37
-89 -82 -127 -126 -280 -220 -443 -271 -83 -26 -253 -64 -410 -92 -49 -9 -109
-25 -133 -37 -60 -28 -72 -15 -44 49 11 26 30 102 42 168 77 434 151 603 358
817 l84 86 -63 81 c-34 45 -63 81 -63 81 -1 0 -14 -26 -31 -58z"/>
<path d="M10678 5525 c-32 -41 -58 -76 -58 -79 0 -2 32 -35 71 -73 118 -114
209 -250 264 -398 32 -84 76 -265 105 -429 11 -66 30 -141 42 -168 28 -66 15
-80 -47 -50 -25 12 -98 31 -162 42 -65 12 -183 37 -263 56 -240 58 -441 170
-583 324 -31 33 -59 60 -62 60 -8 0 -149 -110 -152 -118 -1 -4 25 -23 58 -42
76 -43 174 -146 217 -227 35 -66 72 -195 72 -249 0 -38 28 -63 128 -113 122
-61 192 -71 552 -81 360 -10 435 -20 616 -85 79 -28 94 -31 89 -17 -29 71 -69
203 -86 287 -18 82 -23 157 -29 415 -9 326 -16 386 -59 501 -12 31 -38 80 -59
109 -37 53 -38 54 -109 66 -203 34 -347 128 -446 291 -18 29 -34 53 -37 53 -3
0 -31 -34 -62 -75z"/>
<path d="M3834 5366 c-65 -57 -150 -162 -203 -250 -76 -128 -125 -284 -176
-561 -14 -77 -28 -147 -30 -156 -6 -17 22 -12 305 47 217 45 345 94 480 183
60 39 230 198 230 214 0 6 -19 26 -42 46 -80 70 -70 69 -146 1 -95 -86 -232
-177 -324 -217 -77 -32 -298 -97 -305 -89 -6 5 23 115 54 211 48 147 132 287
258 429 l54 60 -20 25 c-10 14 -33 43 -51 64 l-33 37 -51 -44z"/>
<path d="M10539 5357 c-25 -29 -48 -57 -52 -63 -4 -7 22 -44 59 -85 155 -173
247 -357 299 -597 8 -38 18 -39 -155 10 -180 50 -342 143 -487 281 -36 34 -56
46 -66 40 -27 -16 -107 -91 -107 -100 0 -17 134 -145 205 -195 154 -109 288
-159 584 -218 212 -42 236 -45 227 -31 -3 5 -17 71 -31 147 -53 288 -98 432
-176 566 -51 88 -147 206 -207 256 l-48 40 -45 -51z"/>
<path d="M4625 4627 c-90 -47 -188 -149 -230 -239 -78 -164 -84 -333 -21 -633
42 -201 46 -298 16 -423 -11 -46 -20 -88 -20 -94 0 -6 28 16 63 50 117 114
167 142 375 207 324 103 494 219 587 404 43 86 67 239 49 307 -4 16 -78 64
-98 64 -2 0 -6 -21 -9 -47 -4 -37 -12 -54 -36 -75 -37 -33 -72 -36 -124 -8
l-38 21 -20 -26 c-42 -52 -117 -13 -150 78 l-12 35 -56 -5 c-38 -4 -68 0 -94
10 -33 14 -37 20 -37 51 0 19 5 38 10 41 18 11 11 22 -21 35 -35 15 -69 63
-69 98 0 33 25 76 54 96 15 9 26 20 26 24 0 6 -61 51 -80 59 -3 1 -32 -12 -65
-30z m253 -489 c104 -49 157 -143 150 -265 -9 -161 -123 -268 -283 -267 -89 1
-149 28 -210 96 -149 166 -55 433 164 467 66 11 107 3 179 -31z"/>
<path d="M4669 4116 c-58 -21 -107 -64 -135 -122 -23 -46 -26 -64 -22 -123 4
-82 35 -135 106 -185 54 -38 149 -48 217 -21 62 23 129 100 145 166 44 184
-134 348 -311 285z m159 -105 c55 -30 80 -128 47 -191 -52 -101 -203 -102
-254 -1 -24 47 -26 79 -7 124 36 84 129 114 214 68z"/>
<path d="M9745 4634 c-11 -8 -27 -20 -35 -25 -12 -7 -10 -14 16 -36 57 -50 68
-95 35 -149 -10 -17 -33 -36 -50 -44 -32 -13 -39 -24 -21 -35 6 -3 10 -22 10
-41 0 -31 -4 -37 -37 -51 -24 -10 -57 -14 -94 -11 -56 4 -56 4 -69 -30 -32
-89 -108 -129 -148 -77 -23 29 -35 31 -52 10 -18 -21 -76 -29 -111 -15 -34 15
-59 55 -59 98 0 41 -7 43 -55 20 -48 -24 -55 -37 -55 -118 0 -128 62 -278 154
-373 106 -110 228 -175 492 -262 205 -68 246 -90 351 -189 46 -43 83 -74 83
-69 0 6 -9 45 -21 89 -22 87 -27 225 -10 309 6 28 22 104 36 170 70 329 29
559 -129 719 -63 65 -156 126 -191 126 -11 -1 -29 -8 -40 -16z m98 -487 c91
-38 167 -154 167 -256 0 -103 -72 -216 -168 -262 -65 -32 -179 -33 -239 -1
-109 57 -165 145 -165 260 0 86 23 143 80 200 50 50 91 72 151 81 61 10 116 3
174 -22z"/>
<path d="M9630 4109 c-96 -43 -144 -117 -144 -219 0 -100 58 -188 150 -226 77
-32 205 -4 261 57 37 41 63 110 63 169 0 170 -178 288 -330 219z m169 -98 c68
-47 86 -119 49 -191 -18 -36 -33 -49 -69 -64 -64 -26 -112 -16 -161 34 -34 34
-38 43 -38 89 0 81 27 122 97 146 44 15 88 10 122 -14z"/>
<path d="M4944 4421 c-56 -26 -134 -92 -134 -113 0 -18 55 -30 99 -21 41 7 48
13 83 72 35 57 43 91 21 91 -4 0 -35 -13 -69 -29z"/>
<path d="M9444 4437 c-3 -8 12 -43 34 -78 32 -52 44 -65 73 -71 31 -7 83 -2
102 9 21 12 -49 86 -113 118 -68 34 -89 39 -96 22z"/>
<path d="M5037 4345 c-20 -35 -37 -71 -37 -80 0 -32 52 -115 72 -115 19 0 38
72 38 145 0 71 -11 115 -28 115 -4 0 -24 -29 -45 -65z"/>
<path d="M9370 4391 c-25 -48 -3 -241 28 -241 20 0 72 82 72 113 0 18 -72 147
-82 147 -4 0 -12 -9 -18 -19z"/>
<path d="M5488 4103 c-4 -78 -12 -114 -37 -178 -40 -102 -112 -200 -197 -266
l-66 -53 4 -120 c7 -168 41 -257 206 -540 137 -237 198 -387 230 -568 9 -54
19 -98 23 -98 4 0 26 25 49 55 59 77 192 200 281 261 41 28 146 93 234 144
170 98 228 137 313 209 60 50 132 145 162 215 19 41 19 48 6 73 -85 166 -77
436 19 575 14 20 25 41 25 46 0 8 -188 38 -195 30 -1 -2 -13 -41 -25 -88 -54
-211 -146 -373 -296 -524 -56 -56 -159 -149 -292 -264 -34 -29 -69 -67 -77
-83 -9 -16 -24 -29 -34 -29 -15 0 -20 11 -25 56 -3 31 -22 96 -41 145 -52 136
-114 344 -132 444 -28 163 -11 349 52 561 6 18 -4 24 -82 54 -48 19 -91 36
-94 38 -4 1 -9 -41 -11 -95z"/>
<path d="M8885 4164 c-44 -18 -84 -35 -89 -37 -4 -1 1 -34 13 -72 50 -161 63
-351 36 -511 -17 -98 -80 -311 -131 -446 -19 -47 -37 -111 -40 -142 -8 -67
-31 -75 -64 -22 -11 19 -78 84 -148 144 -236 203 -333 311 -415 462 -40 74
-89 208 -107 293 -6 31 -16 57 -23 57 -42 0 -187 -24 -187 -32 0 -4 11 -26 25
-48 14 -22 37 -75 51 -117 46 -137 32 -330 -33 -456 -13 -26 -12 -33 15 -90
65 -140 178 -239 457 -401 94 -54 206 -124 250 -155 93 -65 216 -179 275 -257
24 -30 45 -54 49 -54 4 0 12 36 19 80 30 190 89 335 252 620 147 257 190 377
190 534 0 87 0 88 -32 114 -182 149 -268 310 -268 502 0 39 -3 70 -7 69 -5 0
-44 -16 -88 -35z"/>
<path d="M5701 4028 c-11 -40 -26 -100 -32 -133 -15 -82 -15 -276 0 -354 18
-93 74 -281 122 -413 22 -62 43 -119 45 -127 3 -10 17 -3 47 25 23 22 87 79
143 126 189 163 291 283 366 433 46 91 91 229 92 279 l1 40 -65 12 c-36 7 -70
13 -75 13 -6 1 -24 -38 -39 -86 -36 -111 -93 -235 -142 -310 -43 -65 -242
-275 -254 -268 -5 3 -23 65 -42 138 -31 123 -33 143 -32 287 1 119 6 179 23
259 12 57 21 105 19 106 -7 5 -133 45 -143 45 -7 0 -22 -33 -34 -72z"/>
<path d="M8655 4078 c-33 -11 -61 -22 -63 -23 -2 -2 7 -50 19 -107 17 -80 22
-137 23 -258 1 -158 -11 -235 -60 -384 l-16 -48 -90 88 c-155 154 -224 264
-294 470 -21 60 -38 110 -40 112 -2 4 -154 -24 -159 -29 -2 -2 8 -47 21 -99
30 -121 116 -296 192 -392 60 -75 193 -206 297 -292 33 -28 79 -68 102 -90 31
-28 44 -35 47 -25 3 8 34 100 69 204 85 251 109 358 109 505 0 124 -11 203
-44 318 -24 81 -22 81 -113 50z"/>
<path d="M6764 3804 c-54 -85 -84 -186 -84 -287 0 -198 88 -369 318 -619 131
-142 175 -217 218 -371 9 -32 18 -57 20 -54 3 2 13 37 24 76 40 144 76 200
248 392 103 115 188 236 226 322 76 170 75 341 -3 495 -49 97 -60 106 -115 98
-39 -6 -46 -10 -41 -24 12 -29 18 -90 11 -115 -8 -35 -53 -61 -106 -62 -43 -1
-45 -3 -48 -33 -7 -67 -73 -73 -158 -16 -30 20 -42 24 -54 15 -29 -21 -85 -48
-111 -55 -38 -9 -72 21 -72 63 0 30 -2 31 -29 26 -37 -8 -94 11 -113 38 -17
25 -20 84 -5 123 6 15 9 28 7 30 -2 2 -24 7 -50 10 l-46 7 -37 -59z m602 -329
c70 -34 127 -104 144 -176 46 -191 -83 -359 -275 -359 -156 0 -272 107 -283
261 -5 80 14 148 59 202 33 41 103 85 152 98 56 14 144 3 203 -26z"/>
<path d="M7135 3442 c-89 -42 -153 -157 -139 -249 10 -65 61 -142 118 -178 43
-26 59 -30 121 -30 62 0 78 4 121 30 57 36 108 113 117 176 12 88 -35 183
-115 237 -54 36 -162 42 -223 14z m165 -90 c19 -9 45 -33 58 -52 20 -29 23
-44 19 -89 -3 -48 -9 -59 -45 -93 -37 -34 -47 -38 -93 -38 -91 0 -149 58 -149
148 0 72 71 142 145 142 17 0 46 -8 65 -18z"/>
<path d="M7157 3806 c-40 -51 -68 -112 -74 -156 -5 -35 -3 -40 14 -40 10 0 40
13 66 30 l47 30 0 85 c0 97 -11 107 -53 51z"/>
<path d="M7260 3755 l0 -85 47 -30 c26 -17 56 -30 66 -30 39 0 5 111 -60 196
-42 56 -53 46 -53 -51z"/>
</g>
</svg>
