<svg xmlns="http://www.w3.org/2000/svg" xmlns:xlink="http://www.w3.org/1999/xlink" viewBox="0 0 181.97 161.04"><defs><style>.cls-1,.cls-4{fill:none;}.cls-2{clip-path:url(#clip-path);}.cls-3,.cls-6{fill:#fff;}.cls-4{stroke:#fff;stroke-miterlimit:10;stroke-width:6px;}.cls-5,.cls-6{font-size:34px;}.cls-5,.cls-7{fill:#ed1c24;}.cls-5,.cls-6,.cls-7{font-family:AzonixRegular, Azonix;}.cls-7{font-size:33.81px;}</style><clipPath id="clip-path" transform="translate(-156.81 -74.23)"><rect class="cls-1" width="511.17" height="280.92"/></clipPath></defs><title>Asset 1</title><g id="Layer_2" data-name="Layer 2"><g id="Layer_1-2" data-name="Layer 1"><g class="cls-2"><path class="cls-3" d="M299.87,120.86a4.26,4.26,0,1,1-4.26-4.26,4.26,4.26,0,0,1,4.26,4.26" transform="translate(-156.81 -74.23)"/><path class="cls-3" d="M242.32,190.79a4.26,4.26,0,1,1-4.26-4.26,4.26,4.26,0,0,1,4.26,4.26" transform="translate(-156.81 -74.23)"/><path class="cls-3" d="M278.22,190.79a4.26,4.26,0,1,1-4.26-4.26,4.26,4.26,0,0,1,4.26,4.26" transform="translate(-156.81 -74.23)"/><path class="cls-3" d="M271.13,78.49a4.26,4.26,0,1,1-4.26-4.26,4.26,4.26,0,0,1,4.26,4.26" transform="translate(-156.81 -74.23)"/><path class="cls-4" d="M295.61,120.12l-29.33,54.12c-4.76,10.1-10.69,9.41-10.69,9.41-5.65.34-10.86-9.41-10.86-9.41l-37.86-70.67" transform="translate(-156.81 -74.23)"/><path class="cls-4" d="M220.08,89.31l32.08,60s3.56,6.11,7.11,0l32.07-59.82" transform="translate(-156.81 -74.23)"/><path class="cls-4" d="M266.39,78.25a58.63,58.63,0,0,0-10.8-1c-14.37,0-25.34,3.44-35.5,12.07l1.85,3.46" transform="translate(-156.81 -74.23)"/><path class="cls-4" d="M237.21,190.79a58.28,58.28,0,0,1-39.87-55.29,56.76,56.76,0,0,1,9.53-31.93l3.06,5.71" transform="translate(-156.81 -74.23)"/><path class="cls-4" d="M291.35,89.52A58.27,58.27,0,0,1,274,190.79" transform="translate(-156.81 -74.23)"/><path class="cls-4" d="M291.35,89.52h0l-2.16,4" transform="translate(-156.81 -74.23)"/></g><text class="cls-5" transform="translate(0 154.82)">V</text><text class="cls-6" transform="translate(24.99 154.82)">SEARCH</text><text class="cls-7" transform="translate(86.94 42.46)">X</text></g></g></svg>